PathFileType	4	(X/Y/Z)	C:\Users\dbl\Desktop\20210112(1)\20210112\bx_y_0_901.trc
DataRate	CameraRate	NumFrames	NumMarkers	Units	OrigDataRate	OrigDataStartFrame	OrigNumFrames
50.00	50.00	       6	43	mm	50.00	58	       457
Frame#	Time	Top.Head			R.Acromium			L.Acromium			Sternum			R.ASIS			L.ASIS			V.Sacral			R.Thigh.Upper			R.Thigh.Front			R.Thigh.Rear			R.Knee.Lat			R.Knee.Med			R.Shank.Upper			R.Shank.Front			R.Shank.Rear			R.Ankle.Lat			R.Midfoot.Lat			R.Toe.Lat			R.Toe.Tip			R.Toe.Med			R.Ankle.Med			R.Midfoot.Sup			R.Heel			L.Thigh.Upper			L.Thigh.Front			L.Thigh.Rear			L.Knee.Lat			L.Knee.Med			L.Shank.Upper			L.Shank.Front			L.Shank.Rear			L.Ankle.Lat			L.Midfoot.Lat			L.Toe.Lat			L.Toe.Tip			L.Toe.Med			L.Ankle.Med			L.Midfoot.Sup			L.Heel			origin1 front left			origin2 front right			origin 3 back right			origin 4 back leftt			
		X1	Y1	Z1	X2	Y2	Z2	X3	Y3	Z3	X4	Y4	Z4	X5	Y5	Z5	X6	Y6	Z6	X7	Y7	Z7	X8	Y8	Z8	X9	Y9	Z9	X10	Y10	Z10	X11	Y11	Z11	X12	Y12	Z12	X13	Y13	Z13	X14	Y14	Z14	X15	Y15	Z15	X16	Y16	Z16	X17	Y17	Z17	X18	Y18	Z18	X19	Y19	Z19	X20	Y20	Z20	X21	Y21	Z21	X22	Y22	Z22	X23	Y23	Z23	X24	Y24	Z24	X25	Y25	Z25	X26	Y26	Z26	X27	Y27	Z27	X28	Y28	Z28	X29	Y29	Z29	X30	Y30	Z30	X31	Y31	Z31	X32	Y32	Z32	X33	Y33	Z33	X34	Y34	Z34	X35	Y35	Z35	X36	Y36	Z36	X37	Y37	Z37	X38	Y38	Z38	X39	Y39	Z39	X40	Y40	Z40	X41	Y41	Z41	X42	Y42	Z42	X43	Y43	Z43	

58	1.140	-671.09863	131.46078	1851.32385	-685.13599	-66.94502	1547.67419	-730.52087	292.71057	1527.18311	-620.28986	113.14757	1434.15918	-595.25714	0.93413	1047.88477	-591.16089	224.04489	1069.81189	-796.05536	97.61973	1058.17664	-656.51764	-64.59921	855.74493	-588.19562	0.27186	800.37811	-698.39783	-46.30282	715.62604	-708.36163	-25.44613	612.62952	-694.09912	82.77762	571.13513	-719.34143	-22.45948	566.67822	-670.81482	22.27772	518.98724	-765.20575	-32.50107	487.69156	-766.35901	-4.22115	207.68918	-663.40289	-66.18853	163.99614	-622.50427	-77.19828	159.37132	-559.83728	-40.18169	164.51370	-603.24963	20.45428	165.42572	-716.53534	79.44353	215.39551	-674.39911	57.01717	156.02104	-794.53986	56.35057	175.09648	-647.18390	284.63785	876.72375	-586.76477	220.79182	813.99371	-696.58624	274.46445	744.21100	-730.61786	251.56764	638.62158	-692.25928	145.95711	571.73517	-733.99341	247.19594	575.04877	-678.59290	208.29860	532.13330	-773.69977	255.44327	501.96838	-771.45105	221.69154	205.36603	-667.61365	299.05499	159.80823	-630.38007	307.40509	162.57242	-561.80396	262.79907	166.35622	-594.63239	222.76317	173.44635	-711.34949	152.00218	216.13403	-675.00452	171.59680	156.87602	-796.21069	171.66283	184.09483	-528.11346	304.23782	146.41628	-517.65009	-72.73539	142.77444	-875.94806	-78.64843	141.39694	-882.63184	296.00922	144.47827	
59	1.160	-670.13434	131.53459	1851.29810	-684.51721	-66.99787	1547.76782	-729.90424	292.77237	1527.31531	-619.83704	113.05398	1434.08521	-595.36163	0.93939	1047.86609	-591.19305	223.99278	1069.76978	-796.17346	97.57607	1058.26599	-656.74677	-64.60461	855.73090	-588.29431	0.23691	800.33142	-698.52765	-46.30627	715.52716	-708.45087	-25.46221	612.67535	-694.14703	82.77317	571.16309	-719.37250	-22.46226	566.70178	-670.85529	22.28642	518.98090	-765.25745	-32.51651	487.70459	-766.35925	-4.22420	207.69148	-663.37994	-66.20438	163.96715	-622.53998	-77.16469	159.35249	-559.82434	-40.17756	164.49704	-603.23566	20.43649	165.44159	-716.54199	79.44504	215.41664	-674.36847	57.02383	156.03134	-794.53052	56.34054	175.10228	-647.26532	284.57477	876.69885	-586.81470	220.77002	813.99915	-696.73682	274.42206	744.29553	-730.63379	251.55763	638.60596	-692.23914	145.93114	571.73663	-734.06055	247.12746	575.04260	-678.62695	208.29089	532.10046	-773.67651	255.39528	501.90179	-771.44244	221.70781	205.34581	-667.62238	299.07700	159.83179	-630.42090	307.41391	162.55876	-561.82129	262.81750	166.37535	-594.64435	222.76270	173.45491	-711.35382	151.98624	216.11682	-674.96088	171.57300	156.85558	-796.21295	171.62169	184.09167	-528.12543	304.25760	146.44638	-517.67938	-72.68674	142.76775	-875.98853	-78.61890	141.42616	-882.63202	296.05084	144.50775	
60	1.180	-669.02856	131.61852	1851.26929	-683.80579	-67.04687	1547.84619	-729.17316	292.80991	1527.43433	-619.26080	113.09044	1434.05774	-595.48383	0.96903	1047.83679	-591.24060	223.96117	1069.74976	-796.27991	97.58678	1058.36902	-657.00580	-64.70362	855.77167	-588.39227	0.21402	800.29712	-698.65570	-46.29097	715.39905	-708.56805	-25.54906	612.76624	-694.23810	82.77962	571.21063	-719.43982	-22.47078	566.75116	-670.87024	22.28951	519.01532	-765.34180	-32.54733	487.71204	-766.36865	-4.21606	207.68979	-663.38452	-66.23297	163.95351	-622.54633	-77.17486	159.33359	-559.82825	-40.19282	164.48906	-603.22687	20.43704	165.44531	-716.55109	79.43327	215.46567	-674.35577	57.02727	156.03592	-794.52283	56.33259	175.10155	-647.40881	284.51483	876.66278	-586.91711	220.75032	814.00128	-696.91644	274.41208	744.39471	-730.69836	251.51053	638.56592	-692.23914	145.92278	571.73846	-734.11353	247.06230	575.05133	-678.73138	208.21002	532.08148	-773.71973	255.37744	501.88013	-771.43597	221.70354	205.31010	-667.62018	299.08624	159.86621	-630.44775	307.42047	162.54089	-561.84283	262.83408	166.39093	-594.64838	222.75690	173.45876	-711.36279	151.95821	216.10658	-674.94440	171.56068	156.83582	-796.23676	171.59581	184.09177	-528.12744	304.27701	146.46814	-517.70294	-72.63621	142.72191	-876.00385	-78.60837	141.43845	-882.64508	296.09045	144.53761	
61	1.200	-667.74225	131.69186	1851.25427	-683.01172	-67.06524	1547.91589	-728.33636	292.78452	1527.53577	-618.59528	113.19357	1434.08740	-595.60883	0.98866	1047.78906	-591.31390	223.95244	1069.74878	-796.36664	97.61838	1058.45654	-657.24103	-64.92257	855.85529	-588.51019	0.17308	800.27295	-698.80762	-46.24384	715.25226	-708.73553	-25.70367	612.90503	-694.39557	82.78261	571.25690	-719.57324	-22.48223	566.82086	-670.88544	22.27044	519.07965	-765.45111	-32.59037	487.71982	-766.37769	-4.20965	207.68419	-663.41010	-66.26151	163.94817	-622.53815	-77.23344	159.32625	-559.85284	-40.22004	164.50732	-603.22522	20.44839	165.44119	-716.56506	79.40569	215.53636	-674.36182	57.03500	156.03757	-794.52148	56.34277	175.08311	-647.59882	284.50989	876.60925	-587.08319	220.74544	814.00281	-697.06580	274.41849	744.47754	-730.84033	251.40480	638.47687	-692.28888	145.92705	571.73895	-734.14032	247.01390	575.08569	-678.85852	208.10152	532.07202	-773.80469	255.36311	501.89154	-771.43658	221.68668	205.27597	-667.60974	299.08139	159.88213	-630.46246	307.43283	162.53154	-561.84570	262.82867	166.38974	-594.64154	222.74500	173.45857	-711.37073	151.93466	216.10628	-674.97211	171.56599	156.82890	-796.27802	171.60117	184.08920	-528.13281	304.28903	146.47586	-517.71295	-72.64785	142.67522	-875.99457	-78.61948	141.40904	-882.66650	296.10703	144.54741	
62	1.220	-666.26904	131.74612	1851.25623	-682.16650	-67.05508	1547.99695	-727.44861	292.70959	1527.64954	-617.89868	113.27467	1434.14441	-595.72144	0.98785	1047.72729	-591.40936	223.95053	1069.75305	-796.44958	97.63233	1058.53479	-657.44299	-65.18861	855.92749	-588.68060	0.09337	800.24640	-699.02075	-46.20866	715.12958	-708.95142	-25.86291	613.04266	-694.61304	82.75549	571.29102	-719.77673	-22.49404	566.88452	-670.94745	22.22231	519.14490	-765.58618	-32.64539	487.73868	-766.37970	-4.22333	207.67929	-663.43781	-66.28038	163.94261	-622.52704	-77.31666	159.33421	-559.87274	-40.23745	164.53900	-603.22437	20.46442	165.42775	-716.59698	79.37425	215.60028	-674.38995	57.05444	156.03809	-794.52875	56.38065	175.04268	-647.79498	284.56384	876.54541	-587.30457	220.74771	814.00098	-697.16315	274.42294	744.52661	-731.06396	251.24800	638.35114	-692.41620	145.94435	571.73596	-734.16321	246.98779	575.12061	-678.96216	208.02356	532.06366	-773.90009	255.33170	501.90125	-771.44232	221.66678	205.25926	-667.59924	299.06647	159.86406	-630.47699	307.45441	162.53200	-561.82629	262.80795	166.37561	-594.62634	222.72694	173.46191	-711.37866	151.92174	216.10312	-675.01605	171.57964	156.83926	-796.31403	171.63817	184.08669	-528.14850	304.29623	146.46667	-517.71173	-72.74082	142.64473	-875.96783	-78.65072	141.34856	-882.68927	296.09680	144.53026	
63	1.240	-664.63867	131.78497	1851.26282	-681.28625	-67.05596	1548.10828	-726.55798	292.61813	1527.79797	-617.18933	113.27065	1434.15161	-595.81860	0.97938	1047.66309	-591.52112	223.93904	1069.74622	-796.54578	97.60604	1058.63538	-657.64355	-65.36642	855.93927	-588.91272	-0.00852	800.21161	-699.31952	-46.23972	715.09998	-709.20361	-25.95006	613.10394	-694.84534	82.69390	571.31097	-720.03442	-22.48842	566.91339	-671.08362	22.14307	519.19928	-765.76404	-32.70648	487.76569	-766.37885	-4.26047	207.68700	-663.45313	-66.28785	163.93393	-622.50610	-77.38859	159.35506	-559.86469	-40.23087	164.54799	-603.22583	20.48613	165.40657	-716.63739	79.34816	215.63974	-674.43860	57.08154	156.03568	-794.54333	56.43062	174.99228	-647.96375	284.63858	876.51184	-587.56824	220.74152	813.98730	-697.23224	274.42010	744.53992	-731.34497	251.08278	638.24622	-692.60522	145.97705	571.72754	-734.21954	246.99292	575.11633	-679.03180	207.99254	532.06268	-774.00757	255.30099	501.89670	-771.44537	221.65054	205.27364	-667.59357	299.04654	159.83014	-630.48346	307.47427	162.53630	-561.80707	262.79691	166.36989	-594.61237	222.71223	173.47580	-711.39587	151.91446	216.08301	-675.04749	171.58987	156.85910	-796.33032	171.68166	184.08983	-528.17273	304.29950	146.43680	-517.69995	-72.83682	142.61984	-875.93640	-78.69019	141.28955	-882.70667	296.07355	144.49820	
